;Layer: Drill PTH
;EasyEDA v6.4.7, 2020-10-15T23:24:37+03:00
;37922d4682a6484ebcb2293b3ba01163,bea71ea263694c76901d4690734711c5,10
;Gerber Generator version 0.2
M48
METRIC,LZ,000.000
;Holesize 1 = 0.305 METRIC
T01C0.305
;Holesize 2 = 0.800 METRIC
T02C0.800
;Holesize 3 = 0.813 METRIC
T03C0.813
;Holesize 4 = 0.915 METRIC
T04C0.915
;Holesize 5 = 1.001 METRIC
T05C1.001
%
G05
G90
T01
X+066802Y+024257
X+066802Y+039370
X+005461Y+016510
X+045058Y+023087
X+050292Y+041910
X+036322Y+038100
X+050292Y+043942
X+050292Y+037211
X+033655Y+021590
X+036322Y+044831
X+050292Y+035687
X+064516Y+043688
X+052324Y+029337
X+005588Y+055499
X+055499Y+045466
X+057912Y+045466
X+053049Y+019939
X+058801Y+032131
T02
X+009271Y+059690
X+011811Y+059690
X+014351Y+059690
X+016891Y+059690
X+019431Y+059690
X+021971Y+059690
X+024511Y+059690
X+027051Y+059690
X+029591Y+059690
X+032131Y+059690
X+053975Y+059690
X+051435Y+059690
X+048895Y+059690
X+046355Y+059690
X+043815Y+059690
X+041275Y+059690
X+038735Y+059690
X+036195Y+059690
X+076835Y+059690
X+074295Y+059690
X+071755Y+059690
X+069215Y+059690
X+066675Y+059690
X+064135Y+059690
X+061595Y+059690
X+059055Y+059690
X+081915Y+011430
X+079375Y+011430
X+076835Y+011430
X+074295Y+011430
X+071755Y+011430
X+069215Y+011430
X+066675Y+011430
X+064135Y+011430
X+059055Y+011430
X+056515Y+011430
X+053975Y+011430
X+051435Y+011430
X+048895Y+011430
X+046355Y+011430
X+043815Y+011430
X+041275Y+011430
X+036195Y+011430
X+033655Y+011430
X+031115Y+011430
X+028575Y+011430
X+026035Y+011430
X+023495Y+011430
X+020955Y+011430
X+018415Y+011430
X+084455Y+041910
X+084455Y+044450
X+084455Y+046990
X+084455Y+049530
X+084455Y+052070
X+084455Y+054610
X+084455Y+057150
X+084455Y+059690
X+084455Y+039370
X+086995Y+039370
X+086995Y+041910
X+086995Y+044450
X+086995Y+046990
X+086995Y+049530
X+086995Y+052070
X+086995Y+054610
X+086995Y+057150
X+086995Y+059690
T03
X+070993Y+043688
X+070993Y+041148
X+078613Y+041148
X+078613Y+043688
X+070993Y+038608
X+070993Y+036068
X+078613Y+038608
X+078613Y+036068
X+070993Y+029337
X+070993Y+026797
X+078613Y+026797
X+078613Y+029337
X+070993Y+024257
X+070993Y+021717
X+078613Y+024257
X+078613Y+021717
T04
X+030226Y+043688
X+030226Y+041148
X+030226Y+038608
X+030226Y+036068
X+030226Y+033528
X+030226Y+030988
X+030226Y+028448
T05
X+097155Y+031445
X+097155Y+028956
X+097155Y+026466
X+097155Y+062941
X+097155Y+060452
X+097155Y+057962
M30
